<svg class="w-5 h-5" xmlns="http://www.w3.org/2000/svg" viewBox="0 0 512 512">
    <polygon style="fill:#2894EA;" points="504.145,157.46 256,477.648 7.855,157.46 7.855,157.088 95.907,29.385 408.09,29.385 
        504.145,157.088 "></polygon>
    <g>
        <polygon style="fill:#FFFFFF;" points="320.038,29.388 384.075,157.461 256,469.643 464.121,157.462 384.075,29.388 	"></polygon>
    </g>
    <path d="M412.01,21.53H91.781L0,154.643v5.505L256,490.47l256-330.322v-5.684L412.01,21.53z M399.019,37.24l-63.11,105.18
        L270.171,37.24H399.019z M323.325,151.925H188.674l67.325-107.719L323.325,151.925z M241.828,37.24l-65.875,105.399L110.077,37.24
        H241.828z M25.678,167.635h21.904v-15.71H20.956L95.583,43.691l67.648,108.235H64.339v15.71h106.114l71.582,279.17L25.678,167.635z
        M186.671,167.635h138.657l-69.329,270.381L186.671,167.635z M341.547,167.635h106.114v-15.71h-99.135l62.968-104.944
        l78.938,104.945h-26.016v15.71h21.904l-216.357,279.17L341.547,167.635z"></path>
    <rect x="44.636" y="261.67" transform="matrix(-0.6139 -0.7894 0.7894 -0.6139 6.5786 542.2672)" style="fill:#FFFFFF;" width="182.541" height="15.71"></rect>
</svg>