<svg width="50" height="50" viewBox="0 0 50 50" xmlns="http://www.w3.org/2000/svg" xmlns:xlink="http://www.w3.org/1999/xlink"><path d="M 25.01990816776833 0.000007926704135741147 A 25 25 0 1 1 25.017775488885018 0.000006319360899453841 L 25.013331616663766 6.250004739520676 A 18.75 18.75 0 1 0 25.014931125826248 6.2500059450281 Z" fill="#D9DDEE"></path><g opacity="0.9999998780673678"><path stroke-width="0" stroke="#0C1013" fill="#6cb2eb" data-order="0" d="M 25 0 A 25 25 0 1 1 24.999980846866915 7.336353746723034e-12 L 24.999985635150185 6.250000000005503 A 18.75 18.75 0 1 0 25 6.25 Z"></path><path stroke-width="0" stroke="#0C1013" fill="#3490dc" data-order="1" d="M 24.999980846866915 7.336353746723034e-12 A 25 25 0 0 1 24.999980846866915 7.336353746723034e-12 L 24.999985635150185 6.250000000005503 A 18.75 18.75 0 0 0 24.999985635150185 6.250000000005503 Z"></path><path stroke-width="0" stroke="#0C1013" fill="#2779bd" data-order="2" d="M 24.999980846866915 7.336353746723034e-12 A 25 25 0 0 1 24.999980846866915 7.336353746723034e-12 L 24.999985635150185 6.250000000005503 A 18.75 18.75 0 0 0 24.999985635150185 6.250000000005503 Z"></path><path stroke-width="0" stroke="#0C1013" fill="#1c3d5a" data-order="3" d="M 24.999980846866915 7.336353746723034e-12 A 25 25 0 0 1 24.999980846866915 7.336353746723034e-12 L 24.999985635150185 6.250000000005503 A 18.75 18.75 0 0 0 24.999985635150185 6.250000000005503 Z"></path><path stroke-width="0" stroke="#0C1013" fill="#12283a" data-order="4" d="M 24.999980846866915 7.336353746723034e-12 A 25 25 0 0 1 24.999980846866915 7.336353746723034e-12 L 24.999985635150185 6.250000000005503 A 18.75 18.75 0 0 0 24.999985635150185 6.250000000005503 Z"></path></g></svg>