<svg class="w-5 h-5 fill-current absolute z-10" viewBox="0 0 580 580" xmlns="http://www.w3.org/2000/svg"><path fill="#f60" d="m238 185.17c0 15.465-12.535 28-28 28s-28-12.535-28-28v-39.184c0-30.926 25.07-56 56-56 9.6562 0 19.148 2.4961 27.555 7.25l237.1 134.01c26.922 15.219 36.414 49.379 21.195 76.305-5.0078 8.8594-12.336 16.188-21.195 21.195l-237.1 134.01c-26.926 15.219-61.086 5.7305-76.305-21.195-4.7539-8.4062-7.25-17.898-7.25-27.555v-133.86c0-15.465 12.535-28 28-28s28 12.535 28 28v133.86l237.1-134.01-237.1-134.01z"></path></svg>